<svg width="62" height="62" viewBox="0 0 62 62" fill="none" xmlns="http://www.w3.org/2000/svg">
<g clip-path="url(#clip0_190_648)">
<path fill-rule="evenodd" clip-rule="evenodd" d="M2.23864 53.5092C8.78702 27.843 33.5065 17.6403 58.2256 17.3281C58.6502 17.322 58.9916 16.973 58.9855 16.5484C58.9793 16.1239 58.6304 15.7825 58.2058 15.7886C32.7944 16.1082 7.47845 26.7443 0.747029 53.1297C0.641329 53.5405 0.890345 53.9594 1.30312 54.0653C1.71396 54.171 2.13274 53.9219 2.23864 53.5092Z" fill="#6B7280"/>
<path fill-rule="evenodd" clip-rule="evenodd" d="M57.7518 16.5638C56.5824 17.2438 55.1055 18.0809 54.9407 18.1808C50.4737 20.8876 46.6661 24.1423 43.2022 28.0661C42.9207 28.3842 42.9515 28.8719 43.2697 29.1535C43.5878 29.435 44.0754 29.4042 44.357 29.0861C47.7147 25.28 51.4065 22.1226 55.7399 19.4974C55.9924 19.3442 59.3137 17.4645 59.9567 17.0339C60.2213 16.8586 60.3165 16.6771 60.3349 16.6322C60.4416 16.3973 60.4134 16.2009 60.3624 16.0549C60.3035 15.8905 60.1401 15.6428 59.789 15.4887C59.421 15.3289 58.5803 15.1858 58.3711 15.1325C55.2156 14.3203 51.6231 13.6887 48.4246 12.4304C45.3744 11.2307 42.6793 9.45883 41.1616 6.31631C40.9772 5.93357 40.5154 5.77368 40.1327 5.95809C39.75 6.14251 39.59 6.6043 39.7744 6.98703C41.4719 10.5001 44.4514 12.5226 47.8599 13.8635C51.0396 15.114 54.5968 15.7653 57.7518 16.5638Z" fill="#6B7280"/>
</g>
<defs>
<clipPath id="clip0_190_648">
<rect width="55.7432" height="55.7432" fill="white" transform="translate(55.6733 61.6467) rotate(-173.999)"/>
</clipPath>
</defs>
</svg>
