<svg width="50" height="50" viewBox="0 0 50 50" fill="none" xmlns="http://www.w3.org/2000/svg">
<path d="M30.583 12.8333V11.8333H31.583V12.8333H30.583Z" fill="#EDEDEE"/>
<path d="M30.583 31.5833V30.5833H31.583V31.5833H30.583Z" fill="#EDEDEE"/>
<path d="M30.583 6.58334V5.58334H31.583V6.58334H30.583Z" fill="#EDEDEE"/>
<path d="M30.583 25.3333V24.3333H31.583V25.3333H30.583Z" fill="#EDEDEE"/>
<path d="M30.583 19.0833V18.0833H31.583V19.0833H30.583Z" fill="#EDEDEE"/>
<path d="M30.583 37.8333V36.8333H31.583V37.8333H30.583Z" fill="#EDEDEE"/>
<path d="M30.583 44.0833V43.0833H31.583V44.0833H30.583Z" fill="#EDEDEE"/>
<path d="M11.833 12.8333V11.8333H12.833V12.8333H11.833Z" fill="#EDEDEE"/>
<path d="M11.833 31.5833V30.5833H12.833V31.5833H11.833Z" fill="#EDEDEE"/>
<path d="M11.833 6.58334V5.58334H12.833V6.58334H11.833Z" fill="#EDEDEE"/>
<path d="M11.833 25.3333V24.3333H12.833V25.3333H11.833Z" fill="#EDEDEE"/>
<path d="M11.833 19.0833V18.0833H12.833V19.0833H11.833Z" fill="#EDEDEE"/>
<path d="M11.833 37.8333V36.8333H12.833V37.8333H11.833Z" fill="#EDEDEE"/>
<path d="M11.833 44.0833V43.0833H12.833V44.0833H11.833Z" fill="#EDEDEE"/>
<path d="M43.083 12.8333V11.8333H44.083V12.8333H43.083Z" fill="#EDEDEE"/>
<path d="M43.083 31.5833V30.5833H44.083V31.5833H43.083Z" fill="#EDEDEE"/>
<path d="M43.083 6.58334V5.58334H44.083V6.58334H43.083Z" fill="#EDEDEE"/>
<path d="M43.083 25.3333V24.3333H44.083V25.3333H43.083Z" fill="#EDEDEE"/>
<path d="M43.083 19.0833V18.0833H44.083V19.0833H43.083Z" fill="#EDEDEE"/>
<path d="M43.083 37.8333V36.8333H44.083V37.8333H43.083Z" fill="#EDEDEE"/>
<path d="M43.083 44.0833V43.0833H44.083V44.0833H43.083Z" fill="#EDEDEE"/>
<path d="M24.333 12.8333V11.8333H25.333V12.8333H24.333Z" fill="#EDEDEE"/>
<path d="M24.333 31.5833V30.5833H25.333V31.5833H24.333Z" fill="#EDEDEE"/>
<path d="M24.333 6.58334V5.58334H25.333V6.58334H24.333Z" fill="#EDEDEE"/>
<path d="M24.333 25.3333V24.3333H25.333V25.3333H24.333Z" fill="#EDEDEE"/>
<path d="M24.333 19.0833V18.0833H25.333V19.0833H24.333Z" fill="#EDEDEE"/>
<path d="M24.333 37.8333V36.8333H25.333V37.8333H24.333Z" fill="#EDEDEE"/>
<path d="M24.333 44.0833V43.0833H25.333V44.0833H24.333Z" fill="#EDEDEE"/>
<path d="M5.58301 12.8333V11.8333H6.58301V12.8333H5.58301Z" fill="#EDEDEE"/>
<path d="M5.58301 31.5833V30.5833H6.58301V31.5833H5.58301Z" fill="#EDEDEE"/>
<path d="M5.58301 6.58334V5.58334H6.58301V6.58334H5.58301Z" fill="#EDEDEE"/>
<path d="M5.58301 25.3333V24.3333H6.58301V25.3333H5.58301Z" fill="#EDEDEE"/>
<path d="M5.58301 19.0833V18.0833H6.58301V19.0833H5.58301Z" fill="#EDEDEE"/>
<path d="M5.58301 37.8333V36.8333H6.58301V37.8333H5.58301Z" fill="#EDEDEE"/>
<path d="M5.58301 44.0833V43.0833H6.58301V44.0833H5.58301Z" fill="#EDEDEE"/>
<path d="M36.833 12.8333V11.8333H37.833V12.8333H36.833Z" fill="#EDEDEE"/>
<path d="M36.833 31.5833V30.5833H37.833V31.5833H36.833Z" fill="#EDEDEE"/>
<path d="M36.833 6.58334V5.58334H37.833V6.58334H36.833Z" fill="#EDEDEE"/>
<path d="M36.833 25.3333V24.3333H37.833V25.3333H36.833Z" fill="#EDEDEE"/>
<path d="M36.833 19.0833V18.0833H37.833V19.0833H36.833Z" fill="#EDEDEE"/>
<path d="M36.833 37.8333V36.8333H37.833V37.8333H36.833Z" fill="#EDEDEE"/>
<path d="M36.833 44.0833V43.0833H37.833V44.0833H36.833Z" fill="#EDEDEE"/>
<path d="M18.083 12.8333V11.8333H19.083V12.8333H18.083Z" fill="#EDEDEE"/>
<path d="M18.083 31.5833V30.5833H19.083V31.5833H18.083Z" fill="#EDEDEE"/>
<path d="M18.083 6.58334V5.58334H19.083V6.58334H18.083Z" fill="#EDEDEE"/>
<path d="M18.083 25.3333V24.3333H19.083V25.3333H18.083Z" fill="#EDEDEE"/>
<path d="M18.083 19.0833V18.0833H19.083V19.0833H18.083Z" fill="#EDEDEE"/>
<path d="M18.083 37.8333V36.8333H19.083V37.8333H18.083Z" fill="#EDEDEE"/>
<path d="M18.083 44.0833V43.0833H19.083V44.0833H18.083Z" fill="#EDEDEE"/>
<path d="M0.5 0V0.5H0V0H0.5Z" fill="#EDEDEE"/>
<path d="M0 6.58334V5.58334H0.5V6.58334H0Z" fill="#EDEDEE"/>
<path d="M0 12.8333V11.8333H0.5V12.8333H0Z" fill="#EDEDEE"/>
<path d="M0 19.0833V18.0833H0.5V19.0833H0Z" fill="#EDEDEE"/>
<path d="M0 25.3333V24.3333H0.5V25.3333H0Z" fill="#EDEDEE"/>
<path d="M0 31.5833V30.5833H0.5V31.5833H0Z" fill="#EDEDEE"/>
<path d="M0 37.8333V36.8333H0.5V37.8333H0Z" fill="#EDEDEE"/>
<path d="M0 44.0833V43.0833H0.5V44.0833H0Z" fill="#EDEDEE"/>
<path d="M0.5 50H0V49.5H0.5V50Z" fill="#EDEDEE"/>
<path d="M6.58301 50H5.58301V49.5H6.58301V50Z" fill="#EDEDEE"/>
<path d="M12.833 50H11.833V49.5H12.833V50Z" fill="#EDEDEE"/>
<path d="M19.083 50H18.083V49.5H19.083V50Z" fill="#EDEDEE"/>
<path d="M25.333 50H24.333V49.5H25.333V50Z" fill="#EDEDEE"/>
<path d="M31.583 50H30.583V49.5H31.583V50Z" fill="#EDEDEE"/>
<path d="M37.833 50H36.833V49.5H37.833V50Z" fill="#EDEDEE"/>
<path d="M44.083 50H43.083V49.5H44.083V50Z" fill="#EDEDEE"/>
<path d="M50 49.5V50H49.5V49.5H50Z" fill="#EDEDEE"/>
<path d="M50 43.0833V44.0833H49.5V43.0833H50Z" fill="#EDEDEE"/>
<path d="M50 36.8333V37.8333H49.5V36.8333H50Z" fill="#EDEDEE"/>
<path d="M50 30.5833V31.5833H49.5V30.5833H50Z" fill="#EDEDEE"/>
<path d="M50 24.3333V25.3333H49.5V24.3333H50Z" fill="#EDEDEE"/>
<path d="M50 18.0833V19.0833H49.5V18.0833H50Z" fill="#EDEDEE"/>
<path d="M50 11.8333V12.8333H49.5V11.8333H50Z" fill="#EDEDEE"/>
<path d="M50 5.58334V6.58334H49.5V5.58334H50Z" fill="#EDEDEE"/>
<path d="M49.5 0V0.5H50V0H49.5Z" fill="#EDEDEE"/>
<path d="M43.083 0V0.5H44.083V0H43.083Z" fill="#EDEDEE"/>
<path d="M36.833 0V0.5H37.833V0H36.833Z" fill="#EDEDEE"/>
<path d="M30.583 0V0.5H31.583V0H30.583Z" fill="#EDEDEE"/>
<path d="M24.333 0V0.5H25.333V0H24.333Z" fill="#EDEDEE"/>
<path d="M18.083 0V0.5H19.083V0H18.083Z" fill="#EDEDEE"/>
<path d="M11.833 0V0.5H12.833V0H11.833Z" fill="#EDEDEE"/>
<path d="M5.58301 0V0.5H6.58301V0H5.58301Z" fill="#EDEDEE"/>
</svg>
