<svg width="60" height="60" viewBox="0 0 60 60" fill="none" xmlns="http://www.w3.org/2000/svg">
<path fill-rule="evenodd" clip-rule="evenodd" d="M57.3 0H56.7V2.7H51.3V0H50.7V2.7H45.3V0H44.7V2.7H39.3V0H38.7V2.7H33.3V0H32.7V2.7H27.3V0H26.7V2.7H21.3V0H20.7V2.7H15.3V0H14.7V2.7H9.3V0H8.7V2.7H3.3V0H2.7V2.7H0V3.3H2.7V8.7H0V9.3H2.7V14.7H0V15.3H2.7V20.7H0V21.3H2.7V26.7H0V27.3H2.7V32.7H0V33.3H2.7V38.7H0V39.3H2.7V44.7H0V45.3H2.7V50.7H0V51.3H2.7V56.7H0V57.3H2.7V60H3.3V57.3H8.7V60H9.3V57.3H14.7V60H15.3V57.3H20.7V60H21.3V57.3H26.7V60H27.3V57.3H32.7V60H33.3V57.3H38.7V60H39.3V57.3H44.7V60H45.3V57.3H50.7V60H51.3V57.3H56.7V60H57.3V57.3H60V56.7H57.3V51.3H60V50.7H57.3V45.3H60V44.7H57.3V39.3H60V38.7H57.3V33.3H60V32.7H57.3V27.3H60V26.7H57.3V21.3H60V20.7H57.3V15.3H60V14.7H57.3V9.3H60V8.7H57.3V3.3H60V2.7H57.3V0ZM51.3 8.7H56.7V3.3H51.3V8.7ZM51.3 14.7H56.7V9.3H51.3V14.7ZM51.3 20.7H56.7V15.3H51.3V20.7ZM51.3 26.7H56.7V21.3H51.3V26.7ZM51.3 32.7H56.7V27.3H51.3V32.7ZM51.3 38.7H56.7V33.3H51.3V38.7ZM51.3 44.7H56.7V39.3H51.3V44.7ZM51.3 50.7H56.7V45.3H51.3V50.7ZM51.3 56.7H56.7V51.3H51.3V56.7ZM8.7 51.3H3.3V56.7H8.7V51.3ZM8.7 45.3H3.3V50.7H8.7V45.3ZM8.7 39.3H3.3V44.7H8.7V39.3ZM8.7 33.3H3.3V38.7H8.7V33.3ZM8.7 27.3H3.3V32.7H8.7V27.3ZM8.7 21.3H3.3V26.7H8.7V21.3ZM8.7 15.3H3.3V20.7H8.7V15.3ZM8.7 9.3H3.3V14.7H8.7V9.3ZM8.7 3.3H3.3V8.7H8.7V3.3ZM45.3 8.7H50.7V3.3H45.3V8.7ZM45.3 14.7H50.7V9.3H45.3V14.7ZM45.3 20.7H50.7V15.3H45.3V20.7ZM45.3 26.7H50.7V21.3H45.3V26.7ZM45.3 32.7H50.7V27.3H45.3V32.7ZM45.3 38.7H50.7V33.3H45.3V38.7ZM45.3 44.7H50.7V39.3H45.3V44.7ZM45.3 50.7H50.7V45.3H45.3V50.7ZM14.7 45.3H9.3V50.7H14.7V45.3ZM14.7 39.3H9.3V44.7H14.7V39.3ZM14.7 33.3H9.3V38.7H14.7V33.3ZM14.7 27.3H9.3V32.7H14.7V27.3ZM14.7 21.3H9.3V26.7H14.7V21.3ZM14.7 15.3H9.3V20.7H14.7V15.3ZM14.7 9.3H9.3V14.7H14.7V9.3ZM39.3 14.7H44.7V9.3H39.3V14.7ZM39.3 20.7H44.7V15.3H39.3V20.7ZM39.3 26.7H44.7V21.3H39.3V26.7ZM39.3 32.7H44.7V27.3H39.3V32.7ZM39.3 38.7H44.7V33.3H39.3V38.7ZM39.3 44.7H44.7V39.3H39.3V44.7ZM20.7 39.3H15.3V44.7H20.7V39.3ZM20.7 33.3H15.3V38.7H20.7V33.3ZM20.7 27.3H15.3V32.7H20.7V27.3ZM20.7 21.3H15.3V26.7H20.7V21.3ZM20.7 15.3H15.3V20.7H20.7V15.3ZM33.3 20.7H38.7V15.3H33.3V20.7ZM33.3 26.7H38.7V21.3H33.3V26.7ZM33.3 32.7H38.7V27.3H33.3V32.7ZM33.3 38.7H38.7V33.3H33.3V38.7ZM26.7 33.3H21.3V38.7H26.7V33.3ZM26.7 27.3H21.3V32.7H26.7V27.3ZM26.7 21.3H21.3V26.7H26.7V21.3ZM27.3 26.7H32.7V21.3H27.3V26.7ZM27.3 32.7H32.7V27.3H27.3V32.7ZM32.7 33.3H27.3V38.7H32.7V33.3ZM27.3 20.7H32.7V15.3H27.3V20.7ZM21.3 20.7H26.7V15.3H21.3V20.7ZM26.7 39.3H21.3V44.7H26.7V39.3ZM32.7 39.3H27.3V44.7H32.7V39.3ZM38.7 39.3H33.3V44.7H38.7V39.3ZM33.3 14.7H38.7V9.3H33.3V14.7ZM27.3 14.7H32.7V9.3H27.3V14.7ZM21.3 14.7H26.7V9.3H21.3V14.7ZM15.3 14.7H20.7V9.3H15.3V14.7ZM20.7 45.3H15.3V50.7H20.7V45.3ZM26.7 45.3H21.3V50.7H26.7V45.3ZM32.7 45.3H27.3V50.7H32.7V45.3ZM38.7 45.3H33.3V50.7H38.7V45.3ZM44.7 45.3H39.3V50.7H44.7V45.3ZM39.3 8.7H44.7V3.3H39.3V8.7ZM33.3 8.7H38.7V3.3H33.3V8.7ZM27.3 8.7H32.7V3.3H27.3V8.7ZM21.3 8.7H26.7V3.3H21.3V8.7ZM15.3 8.7H20.7V3.3H15.3V8.7ZM9.3 8.7H14.7V3.3H9.3V8.7ZM14.7 51.3H9.3V56.7H14.7V51.3ZM20.7 51.3H15.3V56.7H20.7V51.3ZM26.7 51.3H21.3V56.7H26.7V51.3ZM32.7 51.3H27.3V56.7H32.7V51.3ZM38.7 51.3H33.3V56.7H38.7V51.3ZM44.7 51.3H39.3V56.7H44.7V51.3ZM50.7 51.3H45.3V56.7H50.7V51.3Z" fill="#F2F2F2"/>
</svg>
